<?xml version="1.0" encoding="utf-8" ?>
<svg xmlns="http://www.w3.org/2000/svg" xmlns:xlink="http://www.w3.org/1999/xlink" width="375" height="375">
	<path fill="#1642D8" transform="matrix(0.732422 0 0 0.732422 0 3.05176e-05)" d="M358.399 390.507C359.546 391.437 360.674 392.379 361.78 393.358C359.549 394.93 357.296 396.719 354.956 398.112C356.177 394.702 361.106 395.554 358.399 390.507Z"/>
	<defs>
		<linearGradient id="gradient_0" gradientUnits="userSpaceOnUse" x1="126.82785" y1="370.44797" x2="247.8391" y2="264.62939">
			<stop offset="0" stop-color="#000AA7"/>
			<stop offset="1" stop-color="#002FF9"/>
		</linearGradient>
	</defs>
	<path fill="url(#gradient_0)" transform="matrix(0.732422 0 0 0.732422 0 3.05176e-05)" d="M121.994 146.903C130.571 154.581 146.491 166.095 153.306 174.668L153.306 174.668C156.656 176.325 175.249 193.218 178.663 196.262C137.619 253.159 163.423 332.597 232.943 350.653C235.57 351.335 239.225 352.416 241.948 352.235C244.853 352.295 247.753 352.784 250.647 352.802C257.638 353.001 264.544 352.062 271.47 352.235C282.204 349.488 292.147 346.604 301.548 340.485L322.03 358.322C324.349 360.329 326.568 362.578 328.97 364.469C329.268 364.766 329.558 365.089 329.878 365.361L329.878 365.361C339.34 373.786 349.148 381.85 358.399 390.507C361.106 395.554 356.177 394.702 354.956 398.112C351.836 400.907 347.286 403.122 343.644 405.256C292.156 435.424 226.563 436.396 174.016 408.292C122.862 380.934 87.3845 327.817 83.4542 269.6C80.5237 226.192 93.0415 180.12 121.994 146.903Z"/>
	<defs>
		<linearGradient id="gradient_1" gradientUnits="userSpaceOnUse" x1="141.44182" y1="321.12103" x2="273.40732" y2="254.9236">
			<stop offset="0" stop-color="#000381"/>
			<stop offset="1" stop-color="#021CBE"/>
		</linearGradient>
	</defs>
	<path fill="url(#gradient_1)" transform="matrix(0.732422 0 0 0.732422 0 3.05176e-05)" d="M153.306 174.668C156.656 176.325 175.249 193.218 178.663 196.262C137.619 253.159 163.423 332.597 232.943 350.653C235.57 351.335 239.225 352.416 241.948 352.235C244.853 352.295 247.753 352.784 250.647 352.802C257.638 353.001 264.544 352.062 271.47 352.235C282.204 349.488 292.147 346.604 301.548 340.485L322.03 358.322C324.349 360.329 326.568 362.578 328.97 364.469C329.268 364.766 329.558 365.089 329.878 365.361C328.759 367.844 323.87 370.006 321.56 371.293C273.165 398.277 210.074 391.661 168.609 355.057C120.992 313.023 110.595 241.155 144.365 187.44C147.131 183.041 149.84 178.56 153.306 174.668Z"/>
	<defs>
		<linearGradient id="gradient_2" gradientUnits="userSpaceOnUse" x1="259.29654" y1="251.91766" x2="358.69034" y2="117.07458">
			<stop offset="0" stop-color="#0266FE"/>
			<stop offset="1" stop-color="#16B6FF"/>
		</linearGradient>
	</defs>
	<path fill="url(#gradient_2)" transform="matrix(0.732422 0 0 0.732422 0 3.05176e-05)" d="M121.994 146.903C153.304 110.846 192.114 86.9621 241.103 83.5342C306.248 78.9759 365.076 106.873 400.739 161.142C430.733 206.785 439.108 267.398 418.318 318.492C413.492 330.354 407.175 341.344 400.497 352.235C391.013 344.852 377.547 331.192 368.277 325.41C359.867 343.139 344.782 354.105 329.878 365.361L329.878 365.361C329.558 365.089 329.268 364.766 328.97 364.469C326.568 362.578 324.349 360.329 322.03 358.322L301.548 340.485C292.147 346.604 282.204 349.488 271.47 352.235C264.544 352.062 257.638 353.001 250.647 352.802C247.753 352.784 244.853 352.295 241.948 352.235C239.225 352.416 235.57 351.335 232.943 350.653C163.423 332.597 137.619 253.159 178.663 196.262C175.249 193.218 156.656 176.325 153.306 174.668L153.306 174.668C146.491 166.095 130.571 154.581 121.994 146.903Z"/>
	<defs>
		<linearGradient id="gradient_3" gradientUnits="userSpaceOnUse" x1="217.86707" y1="273.30978" x2="362.04785" y2="180.11656">
			<stop offset="0" stop-color="#0617A6"/>
			<stop offset="1" stop-color="#0669F4"/>
		</linearGradient>
	</defs>
	<path fill="url(#gradient_3)" transform="matrix(0.732422 0 0 0.732422 0 3.05176e-05)" d="M153.306 174.668C157.099 170.366 160.414 165.836 164.584 161.851C215.347 113.341 290.955 112.487 343.425 158.914C385.661 196.287 398.72 257.441 377.329 309.102C375.911 312.526 371.262 323.702 368.277 325.41C367.378 324.615 366.506 323.773 365.484 323.138C363.404 320.861 360.515 318.908 358.145 316.905L342.384 303.383C344.054 299.287 346.259 295.489 347.819 291.306C350.397 287.004 352.711 275.545 353.304 270.676C359.729 217.927 324.733 166.366 270.561 159.845C259.211 158.624 251.441 160.028 240.933 159.845C240.752 164.25 240.946 168.652 240.933 173.057C238.755 172.893 235.879 174.318 233.627 174.668C211.271 185.271 202.622 201.478 202.722 225.11C202.182 222.887 202.544 220.391 202.722 218.132C198.677 214.544 180.889 199.378 178.663 196.262L178.663 196.262C175.249 193.218 156.656 176.325 153.306 174.668L153.306 174.668Z"/>
	<defs>
		<linearGradient id="gradient_4" gradientUnits="userSpaceOnUse" x1="183.76981" y1="205.12935" x2="246.56862" y2="173.16319">
			<stop offset="0" stop-color="#0559F9"/>
			<stop offset="1" stop-color="#0580FF"/>
		</linearGradient>
	</defs>
	<path fill="url(#gradient_4)" transform="matrix(0.732422 0 0 0.732422 0 3.05176e-05)" d="M178.663 196.262C195.749 174.373 215.134 165.677 240.933 159.845C240.752 164.25 240.946 168.652 240.933 173.057C238.755 172.893 235.879 174.318 233.627 174.668C211.271 185.271 202.622 201.478 202.722 225.11C202.182 222.887 202.544 220.391 202.722 218.132C198.677 214.544 180.889 199.378 178.663 196.262Z"/>
	<path fill="#077CF5" transform="matrix(0.732422 0 0 0.732422 0 3.05176e-05)" d="M240.933 159.845C251.441 160.028 259.211 158.624 270.561 159.845C324.733 166.366 359.729 217.927 353.304 270.676C352.711 275.545 350.397 287.004 347.819 291.306C346.259 295.489 344.054 299.287 342.384 303.383L358.145 316.905C360.515 318.908 363.404 320.861 365.484 323.138C366.506 323.773 367.378 324.615 368.277 325.41L368.277 325.41C359.867 343.139 344.782 354.105 329.878 365.361L329.878 365.361C329.558 365.089 329.268 364.766 328.97 364.469C326.568 362.578 324.349 360.329 322.03 358.322L301.548 340.485C292.147 346.604 282.204 349.488 271.47 352.235C264.544 352.062 257.638 353.001 250.647 352.802C247.753 352.784 244.853 352.295 241.948 352.235C239.225 352.416 235.57 351.335 232.943 350.653C163.423 332.597 137.619 253.159 178.663 196.262L178.663 196.262C180.889 199.378 198.677 214.544 202.722 218.132C202.544 220.391 202.182 222.887 202.722 225.11C202.622 201.478 211.271 185.271 233.627 174.668C235.879 174.318 238.755 172.893 240.933 173.057C240.946 168.652 240.752 164.25 240.933 159.845Z"/>
	<defs>
		<linearGradient id="gradient_5" gradientUnits="userSpaceOnUse" x1="346.68146" y1="342.66251" x2="326.17288" y2="326.42014">
			<stop offset="0" stop-color="#B4C6FE"/>
			<stop offset="1" stop-color="#6B97FF"/>
		</linearGradient>
	</defs>
	<path fill="url(#gradient_5)" transform="matrix(0.732422 0 0 0.732422 0 3.05176e-05)" d="M272.921 340.485L272.999 340.631C270.496 341.618 271.207 349.011 271.769 350.914C274.203 352.357 289.193 346.475 291.967 345.159C305.914 338.543 298.536 338.727 310.317 347.273L310.641 346.733C313.204 342.523 317.169 339.913 320.66 336.556C329.65 327.91 337.772 316.604 345.014 306.351C339.964 301.39 342.778 302.6 345.707 295.795C346.325 294.359 346.401 292.155 347.819 291.306C346.259 295.489 344.054 299.287 342.384 303.383L358.145 316.905C360.515 318.908 363.404 320.861 365.484 323.138C366.506 323.773 367.378 324.615 368.277 325.41L368.277 325.41C359.867 343.139 344.782 354.105 329.878 365.361L329.878 365.361C329.558 365.089 329.268 364.766 328.97 364.469C326.568 362.578 324.349 360.329 322.03 358.322L301.548 340.485C292.147 346.604 282.204 349.488 271.47 352.235C271.527 348.541 269.75 340.927 272.921 340.485Z"/>
	<path fill="#B6CAFD" transform="matrix(0.732422 0 0 0.732422 0 3.05176e-05)" d="M362.898 321.541C363.721 322.215 364.419 322.901 365.484 323.138C366.506 323.773 367.378 324.615 368.277 325.41L368.277 325.41C359.867 343.139 344.782 354.105 329.878 365.361L329.878 365.361C329.558 365.089 329.268 364.766 328.97 364.469C328.783 363.862 328.349 363.388 327.969 362.891C328.11 362.543 335.175 356.437 336.402 355.045C344.359 346.015 356.638 331.923 362.898 321.541Z"/>
	<defs>
		<linearGradient id="gradient_6" gradientUnits="userSpaceOnUse" x1="242.19348" y1="192.18246" x2="309.04172" y2="189.49089">
			<stop offset="0" stop-color="#8EDDFB"/>
			<stop offset="1" stop-color="#FFFFFD"/>
		</linearGradient>
	</defs>
	<path fill="url(#gradient_6)" transform="matrix(0.732422 0 0 0.732422 0 3.05176e-05)" d="M240.933 159.845C251.441 160.028 259.211 158.624 270.561 159.845L270.561 173.057C294.95 175.144 310.614 199.075 310.792 222.304L281.504 222.304C281.115 205.613 270.821 196.253 254.131 196.701C250.282 196.804 247.618 198.093 244.024 199.119L244.159 198.715L245.389 198.16C244.812 191.393 247.414 176.666 242.557 171.452L241.895 170.739C241.841 170.141 241.857 169.683 241.498 169.18L241.278 169.302C241.277 170.63 241.339 171.987 241.177 173.307L240.933 173.057C240.946 168.652 240.752 164.25 240.933 159.845Z"/>
	<defs>
		<linearGradient id="gradient_7" gradientUnits="userSpaceOnUse" x1="202.81339" y1="222.01683" x2="234.88647" y2="220.29848">
			<stop offset="0" stop-color="#00ADFD"/>
			<stop offset="1" stop-color="#4BD3FE"/>
		</linearGradient>
	</defs>
	<path fill="url(#gradient_7)" transform="matrix(0.732422 0 0 0.732422 0 3.05176e-05)" d="M240.933 173.057L241.177 173.307C241.339 171.987 241.277 170.63 241.278 169.302L241.498 169.18C241.857 169.683 241.841 170.141 241.895 170.739L242.557 171.452C247.414 176.666 244.812 191.393 245.389 198.16L244.159 198.715L244.024 199.119C241.055 200.911 238.463 202.874 235.887 205.191C235.156 207.376 233.341 209.009 232.665 211.239C230.436 218.599 231.173 225.499 235.887 231.554L238.019 233.929C232.756 231.296 234.733 251.035 234.214 255.166C233.816 258.338 231.157 263.132 233.627 265.662C232.369 265.253 231.196 264.696 230.001 264.135C215.569 259.179 203.737 239.716 202.722 225.11C202.622 201.478 211.271 185.271 233.627 174.668C235.879 174.318 238.755 172.893 240.933 173.057Z"/>
	<path fill="#6BD5FC" transform="matrix(0.732422 0 0 0.732422 0 3.05176e-05)" d="M235.887 231.554L238.019 233.929C232.756 231.296 234.733 251.035 234.214 255.166C233.816 258.338 231.157 263.132 233.627 265.662C232.369 265.253 231.196 264.696 230.001 264.135C230.58 264.122 231.008 264.271 231.556 264.431L231.692 263.91L232.119 264.166L231.76 263.874C233.76 254.048 232.962 237.788 235.887 231.554Z"/>
	<path fill="#6BD5FC" transform="matrix(0.732422 0 0 0.732422 0 3.05176e-05)" d="M240.933 173.057L241.177 173.307C241.339 171.987 241.277 170.63 241.278 169.302L241.498 169.18C241.857 169.683 241.841 170.141 241.895 170.739L242.557 171.452C247.414 176.666 244.812 191.393 245.389 198.16L244.159 198.715L244.024 199.119C241.055 200.911 238.463 202.874 235.887 205.191L235.567 205.173C234.893 206.169 234.254 207.177 233.627 208.204C232.313 205.564 230.748 181.443 230.887 176.903C231.883 176.215 232.835 175.598 233.627 174.668C235.879 174.318 238.755 172.893 240.933 173.057Z"/>
	<defs>
		<linearGradient id="gradient_8" gradientUnits="userSpaceOnUse" x1="227.99461" y1="290.73346" x2="308.54648" y2="301.04337">
			<stop offset="0" stop-color="#6CD6FB"/>
			<stop offset="1" stop-color="#FFFFFD"/>
		</linearGradient>
	</defs>
	<path fill="url(#gradient_8)" transform="matrix(0.732422 0 0 0.732422 0 3.05176e-05)" d="M233.627 265.662C231.157 263.132 233.816 258.338 234.214 255.166C234.733 251.035 232.756 231.296 238.019 233.929C245.298 238.475 247.758 240.436 257.377 240.928C314.566 241.614 328.341 315.66 279.743 337.445C277.531 338.436 274.99 339.25 272.921 340.485C269.75 340.927 271.527 348.541 271.47 352.235C264.544 352.062 257.638 353.001 250.647 352.802C247.753 352.784 244.853 352.295 241.948 352.235C241.546 351.526 241.836 342.94 241.948 341.449L242.34 340.861C242.75 341.284 242.043 342.673 242.368 343.357C250.157 340.554 248.871 326.926 249.162 320.609C249.237 318.98 249.942 316.858 249.36 315.366L249.041 315.214L249.127 314.923C252.692 315.731 255.928 315.87 259.569 315.752C289.309 312.431 286.744 273.124 261.253 270.95C258.897 270.75 256.54 270.948 254.18 270.797C249.031 270.512 237.903 268.454 233.627 265.662Z"/>
	<path fill="#9CE3FC" transform="matrix(0.732422 0 0 0.732422 0 3.05176e-05)" d="M249.127 314.923C252.692 315.731 255.928 315.87 259.569 315.752C256.047 318.345 257.983 338.173 252.903 346.319C250.419 347.872 253.493 352.18 250.647 352.802C247.753 352.784 244.853 352.295 241.948 352.235C241.546 351.526 241.836 342.94 241.948 341.449L242.34 340.861C242.75 341.284 242.043 342.673 242.368 343.357C250.157 340.554 248.871 326.926 249.162 320.609C249.237 318.98 249.942 316.858 249.36 315.366L249.041 315.214L249.127 314.923Z"/>
	<path fill="#1533CE" transform="matrix(0.732422 0 0 0.732422 0 3.05176e-05)" d="M178.663 196.262L178.663 196.262C180.889 199.378 198.677 214.544 202.722 218.132C202.544 220.391 202.182 222.887 202.722 225.11C203.737 239.716 215.569 259.179 230.001 264.135C231.196 264.696 232.369 265.253 233.627 265.662C237.903 268.454 249.031 270.512 254.18 270.797C256.54 270.948 258.897 270.75 261.253 270.95C286.744 273.124 289.309 312.431 259.569 315.752C255.928 315.87 252.692 315.731 249.127 314.923L249.041 315.214L249.36 315.366C249.942 316.858 249.237 318.98 249.162 320.609C248.871 326.926 250.157 340.554 242.368 343.357C242.043 342.673 242.75 341.284 242.34 340.861L241.948 341.449C241.836 342.94 241.546 351.526 241.948 352.235C239.225 352.416 235.57 351.335 232.943 350.653C163.423 332.597 137.619 253.159 178.663 196.262Z"/>
	<defs>
		<linearGradient id="gradient_9" gradientUnits="userSpaceOnUse" x1="201.0312" y1="310.75821" x2="235.18398" y2="313.58609">
			<stop offset="0" stop-color="#009FFC"/>
			<stop offset="1" stop-color="#2ACDFC"/>
		</linearGradient>
	</defs>
	<path fill="url(#gradient_9)" transform="matrix(0.732422 0 0 0.732422 0 3.05176e-05)" d="M202.722 289.338L230.887 289.338C230.972 297.131 232.84 302.18 238.019 307.975C241.217 311.479 244.708 313.403 249.127 314.923L249.041 315.214L249.36 315.366C249.942 316.858 249.237 318.98 249.162 320.609C248.871 326.926 250.157 340.554 242.368 343.357C242.043 342.673 242.75 341.284 242.34 340.861L241.948 341.449L241.809 340.876C240.382 339.72 237.618 339.618 235.887 338.577C215.48 332.516 201.437 310.151 202.722 289.338Z"/>
	<path fill="#6BD5FC" transform="matrix(0.732422 0 0 0.732422 0 3.05176e-05)" d="M235.887 338.577C235.112 337.821 233.909 337.338 232.982 336.782C232.803 333.889 233.918 330.704 234.108 327.778C234.365 323.819 231.623 304.9 237.594 307.774L238.019 307.975C241.217 311.479 244.708 313.403 249.127 314.923L249.041 315.214L249.36 315.366C249.942 316.858 249.237 318.98 249.162 320.609C248.871 326.926 250.157 340.554 242.368 343.357C242.043 342.673 242.75 341.284 242.34 340.861L241.948 341.449L241.809 340.876C240.382 339.72 237.618 339.618 235.887 338.577Z"/>
</svg>
